<?xml version="1.0" standalone="no"?>
<!DOCTYPE svg PUBLIC "-//W3C//DTD SVG 20010904//EN"
 "http://www.w3.org/TR/2001/REC-SVG-20010904/DTD/svg10.dtd">
<svg version="1.0" xmlns="http://www.w3.org/2000/svg"
 width="260.000000pt" height="260.000000pt" viewBox="0 0 260.000000 260.000000"
 preserveAspectRatio="xMidYMid meet">
<metadata>
Created by potrace 1.11, written by Peter Selinger 2001-2013
</metadata>
<g transform="translate(0.000000,260.000000) scale(0.100000,-0.100000)"
fill="#000000" stroke="none">
<path d="M1085 2584 c-479 -83 -866 -416 -1021 -881 -48 -143 -65 -267 -60
-443 4 -156 19 -241 66 -381 137 -410 477 -725 905 -839 104 -28 173 -35 325
-35 132 0 223 8 278 24 17 5 32 8 32 6 0 -11 215 72 297 116 261 136 494 391
593 647 12 31 26 66 30 77 64 152 86 449 49 656 -96 537 -507 946 -1060 1054
-70 14 -353 13 -434 -1z"/>
</g>
</svg>
